PathFileType	4	(X/Y/Z)	D:\TRACE\v60_Jaco2_6-2-23\BothDRS_Motion2_2-v60.trc
DataRate	CameraRate	NumFrames	NumMarkers	Units	OrigDataRate	OrigDataStartFrame	OrigNumFrames
100.00	100.00	      17	9	mm	100.00	4688	      7500
Frame#	Time	front left toe			Front right toe			aft left toe			aft right toe			Arm			FL body			FR body			AL Body			AR Body			
		X1	Y1	Z1	X2	Y2	Z2	X3	Y3	Z3	X4	Y4	Z4	X5	Y5	Z5	X6	Y6	Z6	X7	Y7	Z7	X8	Y8	Z8	X9	Y9	Z9	

4688	46.870	-195.07877	135.70224	-149.26677	206.53673	-2.60454	-256.43542	-5.63858	42.43023	447.91418	315.50732	175.05298	367.94504	49.40414	1063.04736	-658.20313	-111.26651	563.39044	-320.02692	44.40388	564.46234	-360.29974	120.20263	596.33197	595.77228	273.21878	591.97198	560.50873	
4689	46.880	-199.61499	131.68079	-150.57120	206.65411	-2.88718	-256.58890	-5.33987	42.81858	447.69293	314.25302	172.16107	364.99747	47.84698	1061.46924	-659.16809	-112.74120	562.26459	-320.94370	43.08706	563.43109	-361.04364	118.01785	597.24139	594.79016	270.69553	592.66034	559.10663	
4690	46.890	-204.14334	126.86407	-152.96927	206.76953	-3.04181	-256.69363	-5.24758	43.39047	447.65561	310.18594	167.40282	361.74985	46.62243	1059.79883	-659.68494	-114.26599	561.55719	-321.60345	41.78952	562.61487	-361.17068	115.12994	598.02704	593.31989	268.72403	594.05353	559.40997	
4691	46.900	-209.30954	121.38618	-155.76706	206.88397	-3.16368	-256.73291	-5.21098	43.86517	447.30493	305.81265	161.64725	358.69168	45.56121	1058.45728	-659.95648	-116.12863	560.79028	-322.45239	39.85298	562.05090	-362.12103	113.46432	599.01801	593.34601	266.29196	594.78467	557.78540	
4692	46.910	-214.04164	114.75684	-158.72591	207.09959	-3.29424	-256.90646	-5.03297	44.00450	447.04944	300.98462	154.81636	355.87131	44.65044	1057.10107	-660.60352	-118.20966	559.66418	-323.48474	38.01583	561.33405	-363.28619	110.98789	599.89508	593.01678	263.88583	595.97601	558.05542	
4693	46.920	-218.73169	107.02136	-162.04453	207.46237	-3.52566	-257.11719	-4.76359	44.08763	446.78186	293.52524	144.83440	353.20236	44.28909	1056.07874	-660.99768	-120.03091	558.84302	-324.29749	35.74302	560.54315	-363.87781	108.55309	600.65668	592.31445	261.57697	596.58167	557.08258	
4694	46.930	-224.20526	99.01320	-165.52557	207.69820	-3.65574	-257.26492	-4.52867	44.27016	446.60934	288.84207	135.04256	350.38077	43.88715	1055.07581	-661.21057	-121.61626	557.71454	-324.88730	34.25018	559.76361	-364.75781	106.04249	601.44690	591.40460	260.42865	597.36060	555.79590	
4695	46.940	-230.02357	90.26904	-169.29129	207.86176	-3.76308	-257.35837	-4.15990	44.53889	446.38446	283.56256	124.33557	347.57202	43.25388	1054.06494	-661.54669	-123.62948	556.86212	-325.94193	32.27093	559.09711	-365.79843	103.42041	602.20972	590.72333	256.76031	598.36292	555.80872	
4696	46.950	-235.64438	80.94353	-172.78540	208.12445	-3.80851	-257.26651	-3.98799	44.96475	446.22253	278.66464	112.42219	344.41940	42.14749	1053.03931	-662.22589	-125.50223	556.52832	-326.92688	30.45061	558.44348	-366.65445	100.85709	602.93024	589.71002	253.88052	598.69769	554.27112	
4697	46.960	-241.43013	71.85144	-176.20943	208.34796	-3.86630	-257.24265	-3.71976	45.13205	446.03598	273.30826	100.23405	341.55127	41.41408	1052.20435	-662.89258	-127.93316	555.79242	-328.34122	28.40769	557.91858	-367.63382	98.12376	603.22736	589.01581	252.03915	599.27570	554.39075	
4698	46.970	-246.42632	62.68456	-179.70432	208.64961	-4.13507	-257.41815	-3.53613	45.03827	445.80493	267.87662	89.62805	338.77914	40.54940	1050.97144	-663.58966	-129.65979	555.30554	-329.64584	26.59178	557.24988	-368.67325	94.65302	603.29730	587.48578	248.07466	598.73480	552.62170	
4699	46.980	-250.63222	53.02906	-182.27515	209.01276	-4.28634	-257.50702	-3.15192	44.83475	445.51700	262.00171	79.03384	336.90256	39.94899	1049.88525	-663.96326	-131.68538	554.71210	-330.84616	24.65881	556.82727	-369.93674	91.77229	603.78644	587.11603	244.70528	599.27234	552.48004	
4700	46.990	-254.62431	44.21674	-184.59552	209.45738	-4.25215	-257.57312	-2.84444	44.80879	445.39297	256.39502	68.73049	335.91519	39.42266	1049.13708	-664.57703	-133.75462	554.31689	-332.19205	23.37926	556.32239	-371.43716	88.63126	604.07935	585.70111	241.96161	599.53412	551.57300	
4701	47.000	-258.24744	35.55823	-186.44893	209.78975	-4.08706	-257.67761	-2.45494	44.92062	445.17764	250.50072	59.45446	335.03345	39.43792	1048.58777	-665.33337	-136.40509	553.93549	-333.88574	19.94495	555.39600	-372.85944	85.00959	604.22070	584.25372	238.75999	599.23993	549.60278	
4702	47.010	-261.33408	27.51181	-187.67067	208.71942	-4.47100	-258.03470	-2.16353	45.01140	444.89240	245.72855	51.53189	335.01163	39.28010	1047.96021	-666.14319	-138.48846	553.57684	-335.41068	17.64406	554.89227	-374.27252	81.83456	604.69824	583.43628	235.03792	599.07935	548.35004	
4703	47.020	-264.32349	20.79549	-188.68217	210.11758	-3.95140	-257.97672	-1.96794	45.01335	444.86353	241.05106	44.82093	334.28220	39.51664	1046.92480	-667.06824	-141.25102	553.09576	-337.23367	14.49113	554.54480	-375.88358	78.00519	604.67432	581.18457	231.34756	599.05713	547.00433	
4704	47.030	-267.47177	14.26493	-190.16078	210.46365	-3.96208	-258.04407	-1.59575	44.79090	444.59760	240.80576	45.55566	330.35638	39.97319	1046.04272	-668.04749	-144.03975	552.78210	-339.31393	11.99895	553.81909	-377.40659	73.85997	604.83630	579.70099	227.82370	599.37299	546.54474	
